<?xml version="1.0" encoding="utf-8"?>
<!-- Generator: Adobe Illustrator 21.1.0, SVG Export Plug-In . SVG Version: 6.00 Build 0)  -->
<svg version="1.1" id="레이어_1" xmlns="http://www.w3.org/2000/svg" xmlns:xlink="http://www.w3.org/1999/xlink" x="0px"
	 y="0px" viewBox="0 0 228.4 21.6" style="enable-background:new 0 0 228.4 21.6;" xml:space="preserve">
<style type="text/css">
	.st0{fill:#D2AB66;}
	.st1{fill:#242424;}
	.st2{fill:#FFFFFF;}
</style>
<g>
	<text transform="matrix(0.95 0 0 1 -96.7348 -221.8649)" style="font-family:'YDIYGO130-KSCPC-EUC-H'; font-size:39px;">&lt;METROCITY_NEW LOGO&gt;</text>
	<g>
		<text transform="matrix(0.95 0 0 1 418.6111 -221.8648)" style="font-family:'YDIYGO130-KSCPC-EUC-H'; font-size:20px;">*로고 사용시 C/M/Y/K 색상 수치를 준수해주시기 바랍니다.</text>
	</g>
</g>
<g>
	<g>
		<g>
			<path class="st0" d="M399.8,34.6h-2.3c-0.1,0-0.2,0.1-0.2,0.1l-3.4,9.5l-3.2-9.5c0-0.1-0.1-0.1-0.2-0.1h-2.3
				c-0.1,0-0.2,0.1-0.2,0.2v11.5c0,0.1,0.1,0.2,0.2,0.2h1.5c0.1,0,0.2-0.1,0.2-0.2v-8.9l3.2,8.9c0,0.1,0.1,0.1,0.2,0.1h1.4
				c0.1,0,0.2-0.1,0.2-0.1l3.2-9v9c0,0.1,0.1,0.2,0.2,0.2h1.5c0.1,0,0.2-0.1,0.2-0.2V34.8C400,34.7,399.9,34.6,399.8,34.6z"/>
			<path class="st0" d="M406.4,34.6H405c-0.1,0-0.2,0.1-0.2,0.2v11.5c0,0.1,0.1,0.2,0.2,0.2h1.4c0.1,0,0.2-0.1,0.2-0.2V34.8
				C406.6,34.7,406.5,34.6,406.4,34.6z"/>
			<path class="st0" d="M418.4,45.1h-5.2V34.8c0-0.1-0.1-0.2-0.2-0.2h-1.4c-0.1,0-0.2,0.1-0.2,0.2v11.5c0,0.1,0.1,0.2,0.2,0.2h6.8
				c0.1,0,0.2-0.1,0.2-0.2v-1C418.6,45.2,418.5,45.1,418.4,45.1z"/>
			<path class="st0" d="M427,34.8c0-0.1-0.1-0.1-0.2-0.1h-1.4c-0.1,0-0.2,0.1-0.2,0.1l-4,11.5c0,0.1,0,0.1,0,0.2
				c0,0.1,0.1,0.1,0.2,0.1h1.4c0.1,0,0.2-0.1,0.2-0.1l1.2-3.5h4.1l1,3.5c0,0.1,0.1,0.1,0.2,0.1h1.4h0h0c0.1,0,0.2-0.1,0.2-0.2
				c0,0,0-0.1,0-0.1L427,34.8z M427.7,41.5h-3.2l1.4-4.9L427.7,41.5z"/>
			<path class="st0" d="M442.8,34.6h-1.4c-0.1,0-0.2,0.1-0.2,0.2v8.9l-1.8-3.6l-3.1-5.4c0-0.1-0.1-0.1-0.2-0.1h-1.7
				c-0.1,0-0.2,0.1-0.2,0.2v11.5c0,0.1,0.1,0.2,0.2,0.2h1.4c0.1,0,0.2-0.1,0.2-0.2v-9.1l5.1,9.2c0,0.1,0.1,0.1,0.2,0.1h1.5
				c0.1,0,0.2-0.1,0.2-0.2V34.8C443,34.7,442.9,34.6,442.8,34.6z"/>
			<path class="st0" d="M455.6,36.3c-0.6-1.1-1.8-1.7-3.7-1.8c0,0-0.1,0-0.1,0c-1.5,0.1-2.5,0.4-3.1,1.1c-0.6,0.7-1,1.4-1.2,2.2
				c-0.1,0.3-0.1,0.6-0.2,1c0,0.3,0,0.6,0,0.9c0,0.1,0,0.2,0,0.3l0,0.1c0,0,0,0.1,0,0.1c0,0.1,0,0.2,0,0.2c0,0.1,0,0.1,0,0.2
				c0,0.3,0,0.7,0,1.1c0,0.4,0,0.8,0.1,1.2c0.1,1,0.5,1.9,1.1,2.8c0.6,0.9,1.7,1.3,3.2,1.3c1.6,0,2.8-0.4,3.4-1.2
				c0.6-0.8,1-1.7,1.2-2.7c0.1-0.4,0.1-0.8,0.1-1.2c0-0.4,0-0.8,0-1.1C456.5,38.7,456.2,37.3,455.6,36.3z M452,45.6
				C452,45.6,451.9,45.5,452,45.6c-0.1,0-0.1,0-0.2,0c-0.9,0-1.5-0.4-1.9-1c-0.4-0.6-0.7-1.3-0.8-2.1c-0.1-0.4-0.1-0.7-0.1-1
				c0-0.3,0-0.7,0-0.9c0-1.3,0.2-2.5,0.6-3.4c0.3-0.9,1.1-1.3,2.3-1.3c0,0,0,0,0.1,0c0.9,0.1,1.5,0.4,1.9,0.9
				c0.4,0.5,0.7,1.1,0.8,1.7c0.1,0.4,0.1,0.7,0.1,1c0,0.3,0,0.6,0,0.9V41c0,0.3,0,0.5,0,0.8c0,0.3,0,0.6-0.1,0.9
				c-0.1,0.7-0.4,1.4-0.8,2C453.6,45.3,452.9,45.6,452,45.6z"/>
		</g>
		<g>
			<g>
				<g>
					<polygon class="st0" points="311.9,0 315.6,0 321.2,12.3 326.6,0 330.3,0 333.5,21.6 328.1,21.6 326.2,9.9 321.2,21.6 
						318.8,21.6 313.9,10.7 311.9,21.6 308,21.6 					"/>
					<polygon class="st0" points="342.6,0 342.6,21.6 353.4,21.6 353.4,20.1 347.9,20.1 347.9,11.6 353.4,11.6 353.4,9.9 348,9.9 
						348,3.1 353.4,3.1 353.4,0 					"/>
					<polygon class="st0" points="363.8,0 363.8,2.3 368.4,2.3 368.4,21.6 373.1,21.6 373.1,2.3 377.7,2.3 377.7,0 					"/>
					<path class="st0" d="M397.4,10.7c4.3-0.8,4.2-5.3,4.2-5.3c0.2-5-4.6-5.4-4.6-5.4h-8.4v21.6h4.6v-7.7h0.8l4.7,7.7h5.2
						L397.4,10.7z M393.1,9.3V2.3c0,0,4.7-0.2,4.7,3.5C397.8,10,393.1,9.3,393.1,9.3z"/>
					<path class="st0" d="M422.4,0c-5.5,0-10,4.8-10,10.8c0,6,4.5,10.8,10,10.8c5.5,0,10-4.8,10-10.8C432.3,4.8,427.9,0,422.4,0z
						 M422.4,19.4c-2.8,0-5-3.8-5-8.5c0-4.7,2.2-8.5,5-8.5s5,3.8,5,8.5C427.4,15.6,425.2,19.4,422.4,19.4z"/>
					<path class="st0" d="M459,15.5L459,15.5c-1,1.9-2.7,3.1-4.5,3.1c-3.1,0-5.7-3.6-5.7-8.1c0-4.5,2.6-8.1,5.7-8.1
						c1.8,0,3.4,1.2,4.5,3.1v0h0.9V2.3C458.1,0.8,456,0,453.6,0c-5.6,0-10.1,4.8-10.1,10.8c0,6,4.5,10.8,10.1,10.8
						c2.3,0,5-1.1,6.2-2.9v-3.3H459z"/>
					<rect x="474.7" class="st0" width="4.6" height="21.6"/>
					<polygon class="st0" points="494.3,0 494.3,2.3 499,2.3 499,21.6 503.7,21.6 503.7,2.3 508.3,2.3 508.3,0 					"/>
					<polygon class="st0" points="519.5,0 526.4,10.5 526.4,21.6 531,21.6 531,9.6 536.4,0 533.4,0 529.1,7.7 523.8,0 					"/>
				</g>
			</g>
		</g>
		<g>
			<g>
				<g>
					<path class="st0" d="M422.2-96.2c-18.7,0-33.8,15.1-33.8,33.8c0,18.7,15.2,33.8,33.8,33.8c18.7,0,33.8-15.2,33.8-33.8
						C456.1-81,440.9-96.2,422.2-96.2z M422.4-30.4c-17.7,0-32-14.3-32-32c0-17.7,14.3-32,32-32c17.7,0,32,14.3,32,32
						C454.4-44.7,440-30.4,422.4-30.4z"/>
					<path class="st0" d="M422.2-111.6c-27.2,0-49.3,22.1-49.3,49.3c0,27.2,22.1,49.3,49.3,49.3c27.2,0,49.3-22.1,49.3-49.3
						C471.5-89.5,449.4-111.6,422.2-111.6z M422.3-14.8c-26.2,0-47.4-21.2-47.4-47.4c0-26.2,21.2-47.4,47.4-47.4
						c26.2,0,47.4,21.2,47.4,47.4C469.8-36,448.5-14.8,422.3-14.8z"/>
				</g>
				<path class="st0" d="M446.6-41.9c-7.4-25.5-0.5-41.4-0.5-41.4l-13.7,0.1c0,0-1.5,8.7-10,12.6C414-74.4,412-83.1,412-83.1
					L398.3-83c0,0,7,15.8-0.1,41.4l15.5-0.1c0,0-2.8-10.2,0.9-16.4c0,0,3.9,1.4,6.3,10.5l1.6,0l1.4,0c2.3-9.1,6.2-10.6,6.2-10.6
					c3.8,6.2,1.1,16.4,1.1,16.4L446.6-41.9z"/>
				<g>
					<polygon class="st0" points="378,-73.1 378.5,-74.5 384,-75.1 380,-78.7 380.4,-80.2 389.2,-78.6 388.5,-76.5 383.7,-77.3 
						387.6,-73.9 387.3,-73 382.4,-72.4 386.4,-70.3 385.9,-68.8 					"/>
					<polygon class="st0" points="392.2,-82.7 384.6,-87.8 387.2,-91.7 387.7,-91.3 386.4,-89.4 389.4,-87.4 390.7,-89.3 
						391.3,-88.9 390,-87 392.4,-85.4 393.7,-87.3 394.8,-86.5 					"/>
					<polygon class="st0" points="392.9,-96.5 393.5,-95.7 395.1,-96.8 399.8,-90 401.4,-91.2 396.8,-97.9 398.4,-99.1 397.8,-99.9 
											"/>
					<path class="st0" d="M409-100.5c1.6-0.9,1-2.7,1-2.7c-0.6-2.1-2.6-1.6-2.6-1.6l-3.4,1.1l2.9,8.8l1.9-0.6l-1-3.1l0.3-0.1
						l2.9,2.5l2.1-0.7L409-100.5z M407.1-100.5l-0.9-2.8c0,0,1.9-0.7,2.4,0.8C409.1-100.9,407.1-100.5,407.1-100.5z"/>
					<path class="st0" d="M422.2-107.4c-2.6,0-4.8,2.1-4.8,4.6c0,2.5,2.1,4.6,4.8,4.6c2.6,0,4.8-2.1,4.8-4.6
						C427-105.3,424.8-107.4,422.2-107.4z M422.2-99.1c-1.3,0-2.4-1.6-2.4-3.6c0-2,1.1-3.6,2.4-3.6c1.3,0,2.4,1.6,2.4,3.6
						C424.6-100.7,423.5-99.1,422.2-99.1z"/>
					<path class="st0" d="M438.6-97.1L438.6-97.1c-0.8,0.4-1.8,0.5-2.5,0c-1.2-0.8-1.4-2.7-0.4-4.4c1-1.6,2.9-2.3,4.1-1.5
						c0.7,0.5,1.1,1.3,1,2.2l0,0l0.3,0.2l0.7-1.1c-0.3-0.9-1-1.8-1.9-2.4c-2.2-1.4-5.1-0.8-6.4,1.4c-1.4,2.1-0.7,5,1.5,6.4
						c0.9,0.6,2.2,0.8,3.1,0.5l0.8-1.2L438.6-97.1z"/>
					
						<rect x="443.2" y="-95.3" transform="matrix(0.6215 -0.7834 0.7834 0.6215 243.3739 315.1217)" class="st0" width="9.2" height="2"/>
					<polygon class="st0" points="457.5,-90.3 456.7,-89.7 457.9,-88.1 451.2,-83.3 452.4,-81.7 459,-86.5 460.2,-84.9 461,-85.5 
											"/>
					<polygon class="st0" points="464.5,-78.1 461,-74.1 456.4,-72.9 456.9,-71 461.9,-72.3 466.4,-71.1 466.1,-72.4 462.4,-73.3 
						465,-76.4 					"/>
					<polygon class="st0" points="466.1,-51.6 465.6,-50.1 460.2,-49.6 464.2,-45.9 463.7,-44.5 455,-46 455.7,-48.1 460.5,-47.3 
						456.6,-50.8 456.9,-51.7 461.7,-52.2 457.8,-54.3 458.3,-55.8 					"/>
					<polygon class="st0" points="451.9,-41.9 459.6,-36.8 457,-33 456.5,-33.3 457.8,-35.2 454.8,-37.3 453.5,-35.3 452.9,-35.7 
						454.1,-37.6 451.7,-39.3 450.4,-37.4 449.4,-38.1 					"/>
					<polygon class="st0" points="451.2,-28.1 450.7,-28.9 449,-27.8 444.4,-34.6 442.7,-33.4 447.4,-26.7 445.8,-25.6 446.3,-24.7 
											"/>
					<path class="st0" d="M435.1-24.1c-1.6,0.9-1,2.7-1,2.7c0.6,2,2.6,1.6,2.6,1.6l3.4-1.1l-2.9-8.8l-1.9,0.6l1,3.1l-0.3,0.1
						l-2.9-2.5l-2.1,0.7L435.1-24.1z M437.1-24.1l0.9,2.8c0,0-1.9,0.7-2.4-0.8C435.1-23.8,437.1-24.1,437.1-24.1z"/>
					<path class="st0" d="M422-17.3c2.6,0,4.8-2.1,4.8-4.6c0-2.5-2.1-4.6-4.8-4.6c-2.6,0-4.8,2.1-4.8,4.6
						C417.2-19.3,419.3-17.3,422-17.3z M421.9-25.5c1.3,0,2.4,1.6,2.4,3.6c0,2-1.1,3.6-2.4,3.6c-1.3,0-2.4-1.6-2.4-3.6
						C419.5-23.9,420.6-25.5,421.9-25.5z"/>
					<path class="st0" d="M405.6-27.5L405.6-27.5c0.8-0.4,1.8-0.5,2.5,0c1.2,0.8,1.4,2.7,0.4,4.3c-1,1.6-2.9,2.3-4.1,1.5
						c-0.7-0.5-1.1-1.3-1-2.2l0,0l-0.3-0.2l-0.7,1.1c0.3,0.9,1,1.8,1.9,2.4c2.2,1.4,5.1,0.8,6.4-1.4c1.4-2.1,0.7-5-1.5-6.4
						c-0.9-0.6-2.2-0.8-3.1-0.5l-0.8,1.2L405.6-27.5z"/>
					<polygon class="st0" points="398.5,-34.5 392.7,-27.3 394.3,-26.1 400,-33.3 					"/>
					<polygon class="st0" points="386.7,-34.3 387.5,-34.9 386.3,-36.5 393,-41.3 391.8,-42.9 385.2,-38.1 384,-39.7 383.2,-39.1 
											"/>
					<polygon class="st0" points="379.6,-46.5 383.2,-50.5 387.8,-51.7 387.3,-53.6 382.3,-52.3 377.8,-53.5 378.1,-52.2 
						381.8,-51.3 379.2,-48.3 					"/>
					<ellipse class="st0" cx="381.1" cy="-62.2" rx="3" ry="3.1"/>
					<ellipse class="st0" cx="463.4" cy="-62.2" rx="3" ry="3.1"/>
				</g>
			</g>
		</g>
	</g>
	<g>
		<g>
			<g>
				<g>
					<polygon class="st1" points="3.9,0 7.6,0 13.2,12.3 18.6,0 22.3,0 25.5,21.6 20.1,21.6 18.2,9.9 13.2,21.6 10.8,21.6 5.9,10.7 
						3.9,21.6 0,21.6 					"/>
					<polygon class="st1" points="34.5,0 34.5,21.6 45.4,21.6 45.4,20.1 39.9,20.1 39.9,11.6 45.4,11.6 45.4,9.9 40,9.9 40,3.1 
						45.4,3.1 45.4,0 					"/>
					<polygon class="st1" points="55.8,0 55.8,2.3 60.4,2.3 60.4,21.6 65.1,21.6 65.1,2.3 69.7,2.3 69.7,0 					"/>
					<path class="st1" d="M89.4,10.7c4.3-0.8,4.2-5.3,4.2-5.3C93.8,0.4,89,0,89,0h-8.4v21.6h4.6v-7.7h0.8l4.7,7.7h5.2L89.4,10.7z
						 M85.1,9.3V2.3c0,0,4.7-0.2,4.7,3.5C89.8,10,85.1,9.3,85.1,9.3z"/>
					<path class="st1" d="M114.4,0c-5.5,0-10,4.8-10,10.8c0,6,4.5,10.8,10,10.8c5.5,0,10-4.8,10-10.8C124.3,4.8,119.9,0,114.4,0z
						 M114.4,19.4c-2.8,0-5-3.8-5-8.5c0-4.7,2.2-8.5,5-8.5s5,3.8,5,8.5C119.4,15.6,117.2,19.4,114.4,19.4z"/>
					<path class="st1" d="M151,15.5L151,15.5c-1,1.9-2.7,3.1-4.5,3.1c-3.1,0-5.7-3.6-5.7-8.1c0-4.5,2.5-8.1,5.7-8.1
						c1.8,0,3.4,1.2,4.5,3.1v0h0.9V2.3C150.1,0.8,148,0,145.6,0c-5.6,0-10.1,4.8-10.1,10.8c0,6,4.5,10.8,10.1,10.8
						c2.3,0,5-1.1,6.2-2.9v-3.3H151z"/>
					<rect x="166.7" class="st1" width="4.6" height="21.6"/>
					<polygon class="st1" points="186.3,0 186.3,2.3 191,2.3 191,21.6 195.7,21.6 195.7,2.3 200.3,2.3 200.3,0 					"/>
					<polygon class="st1" points="211.5,0 218.4,10.5 218.4,21.6 223,21.6 223,9.6 228.4,0 225.4,0 221.1,7.7 215.8,0 					"/>
				</g>
			</g>
		</g>
	</g>
	<text transform="matrix(1 0 0 1 24.7674 123.2504)" style="fill:#6D6E71; font-family:'YDIYGO130-KSCPC-EUC-H'; font-size:20px;">C:0/M:0/Y:0/K:95</text>
	<text transform="matrix(1 0 0 1 320.7502 123.2504)" style="fill:#6D6E71; font-family:'YDIYGO130-KSCPC-EUC-H'; font-size:20px;">C:0/M:20/Y:60/K:20</text>
	<g>
		<rect x="592.1" y="-131.1" class="st1" width="279.8" height="197.5"/>
		<g>
			<g>
				<path class="st2" d="M709.6,34.6h-2.3c-0.1,0-0.2,0.1-0.2,0.1l-3.4,9.5l-3.2-9.5c0-0.1-0.1-0.1-0.2-0.1h-2.3
					c-0.1,0-0.2,0.1-0.2,0.2v11.5c0,0.1,0.1,0.2,0.2,0.2h1.5c0.1,0,0.2-0.1,0.2-0.2v-8.9l3.2,8.9c0,0.1,0.1,0.1,0.2,0.1h1.4
					c0.1,0,0.2-0.1,0.2-0.1l3.2-9v9c0,0.1,0.1,0.2,0.2,0.2h1.5c0.1,0,0.2-0.1,0.2-0.2V34.8C709.8,34.7,709.7,34.6,709.6,34.6z"/>
				<path class="st2" d="M716.2,34.6h-1.4c-0.1,0-0.2,0.1-0.2,0.2v11.5c0,0.1,0.1,0.2,0.2,0.2h1.4c0.1,0,0.2-0.1,0.2-0.2V34.8
					C716.4,34.7,716.3,34.6,716.2,34.6z"/>
				<path class="st2" d="M728.2,45.1H723V34.8c0-0.1-0.1-0.2-0.2-0.2h-1.4c-0.1,0-0.2,0.1-0.2,0.2v11.5c0,0.1,0.1,0.2,0.2,0.2h6.8
					c0.1,0,0.2-0.1,0.2-0.2v-1C728.4,45.2,728.3,45.1,728.2,45.1z"/>
				<path class="st2" d="M736.8,34.8c0-0.1-0.1-0.1-0.2-0.1h-1.4c-0.1,0-0.2,0.1-0.2,0.1l-4,11.5c0,0.1,0,0.1,0,0.2
					c0,0.1,0.1,0.1,0.2,0.1h1.4c0.1,0,0.2-0.1,0.2-0.1l1.2-3.5h4.1l1,3.5c0,0.1,0.1,0.1,0.2,0.1h1.4h0h0c0.1,0,0.2-0.1,0.2-0.2
					c0,0,0-0.1,0-0.1L736.8,34.8z M737.5,41.5h-3.2l1.5-4.9L737.5,41.5z"/>
				<path class="st2" d="M752.6,34.6h-1.4c-0.1,0-0.2,0.1-0.2,0.2v8.9l-1.8-3.6l-3.1-5.4c0-0.1-0.1-0.1-0.2-0.1h-1.7
					c-0.1,0-0.2,0.1-0.2,0.2v11.5c0,0.1,0.1,0.2,0.2,0.2h1.4c0.1,0,0.2-0.1,0.2-0.2v-9.1l5.1,9.2c0,0.1,0.1,0.1,0.2,0.1h1.6
					c0.1,0,0.2-0.1,0.2-0.2V34.8C752.8,34.7,752.7,34.6,752.6,34.6z"/>
				<path class="st2" d="M765.4,36.3c-0.6-1.1-1.8-1.7-3.7-1.8c0,0-0.1,0-0.1,0c-1.5,0.1-2.5,0.4-3.1,1.1c-0.6,0.7-1,1.4-1.2,2.2
					c-0.1,0.3-0.1,0.6-0.2,1c0,0.3,0,0.6,0,0.9c0,0.1,0,0.2,0,0.3l0,0.1c0,0,0,0.1,0,0.1c0,0.1,0,0.2,0,0.2c0,0.1,0,0.1,0,0.2
					c0,0.3,0,0.7,0,1.1c0,0.4,0,0.8,0.1,1.2c0.1,1,0.5,1.9,1.1,2.8c0.6,0.9,1.7,1.3,3.2,1.3c1.6,0,2.8-0.4,3.4-1.2
					c0.6-0.8,1-1.7,1.2-2.7c0.1-0.4,0.1-0.8,0.1-1.2c0-0.4,0-0.8,0-1.1C766.3,38.7,766,37.3,765.4,36.3z M761.8,45.6
					C761.7,45.6,761.7,45.5,761.8,45.6c-0.1,0-0.1,0-0.2,0c-0.9,0-1.5-0.4-1.9-1c-0.4-0.6-0.7-1.3-0.8-2.1c-0.1-0.4-0.1-0.7-0.1-1
					c0-0.3,0-0.7,0-0.9c0-1.3,0.2-2.5,0.6-3.4c0.3-0.9,1.1-1.3,2.3-1.3c0,0,0,0,0.1,0c0.9,0.1,1.5,0.4,1.9,0.9
					c0.4,0.5,0.7,1.1,0.8,1.7c0.1,0.4,0.1,0.7,0.1,1c0,0.3,0,0.6,0,0.9V41c0,0.3,0,0.5,0,0.8c0,0.3,0,0.6-0.1,0.9
					c-0.1,0.7-0.4,1.4-0.8,2C763.4,45.3,762.7,45.6,761.8,45.6z"/>
			</g>
			<g>
				<g>
					<g>
						<polygon class="st2" points="621.7,0 625.4,0 631,12.3 636.4,0 640.1,0 643.3,21.6 637.9,21.6 636,9.9 631,21.6 628.6,21.6 
							623.7,10.7 621.7,21.6 617.8,21.6 						"/>
						<polygon class="st2" points="652.3,0 652.3,21.6 663.2,21.6 663.2,20.1 657.7,20.1 657.7,11.6 663.2,11.6 663.2,9.9 
							657.8,9.9 657.8,3.1 663.2,3.1 663.2,0 						"/>
						<polygon class="st2" points="673.6,0 673.6,2.3 678.2,2.3 678.2,21.6 682.9,21.6 682.9,2.3 687.5,2.3 687.5,0 						"/>
						<path class="st2" d="M707.2,10.7c4.3-0.8,4.2-5.3,4.2-5.3c0.2-5-4.6-5.4-4.6-5.4h-8.4v21.6h4.6v-7.7h0.8l4.7,7.7h5.2
							L707.2,10.7z M702.9,9.3V2.3c0,0,4.7-0.2,4.7,3.5C707.6,10,702.9,9.3,702.9,9.3z"/>
						<path class="st2" d="M732.2,0c-5.5,0-10,4.8-10,10.8c0,6,4.5,10.8,10,10.8c5.5,0,10-4.8,10-10.8C742.1,4.8,737.7,0,732.2,0z
							 M732.2,19.4c-2.8,0-5-3.8-5-8.5c0-4.7,2.2-8.5,5-8.5c2.8,0,5,3.8,5,8.5C737.2,15.6,734.9,19.4,732.2,19.4z"/>
						<path class="st2" d="M768.8,15.5L768.8,15.5c-1,1.9-2.7,3.1-4.5,3.1c-3.1,0-5.7-3.6-5.7-8.1c0-4.5,2.5-8.1,5.7-8.1
							c1.8,0,3.4,1.2,4.5,3.1v0h0.9V2.3c-1.7-1.4-3.9-2.3-6.2-2.3c-5.6,0-10.1,4.8-10.1,10.8c0,6,4.5,10.8,10.1,10.8
							c2.3,0,5-1.1,6.2-2.9v-3.3H768.8z"/>
						<rect x="784.5" class="st2" width="4.6" height="21.6"/>
						<polygon class="st2" points="804.1,0 804.1,2.3 808.8,2.3 808.8,21.6 813.4,21.6 813.4,2.3 818.1,2.3 818.1,0 						"/>
						<polygon class="st2" points="829.3,0 836.2,10.5 836.2,21.6 840.8,21.6 840.8,9.6 846.2,0 843.2,0 838.9,7.7 833.6,0 						
							"/>
					</g>
				</g>
			</g>
			<g>
				<g>
					<g>
						<path class="st2" d="M732-96.2c-18.7,0-33.8,15.1-33.8,33.8c0,18.7,15.2,33.8,33.8,33.8c18.7,0,33.8-15.2,33.8-33.8
							C765.9-81,750.7-96.2,732-96.2z M732.1-30.4c-17.7,0-32-14.3-32-32c0-17.7,14.3-32,32-32c17.7,0,32,14.3,32,32
							C764.2-44.7,749.8-30.4,732.1-30.4z"/>
						<path class="st2" d="M732-111.6c-27.2,0-49.3,22.1-49.3,49.3c0,27.2,22.1,49.3,49.3,49.3c27.2,0,49.3-22.1,49.3-49.3
							C781.3-89.5,759.2-111.6,732-111.6z M732.1-14.8c-26.2,0-47.4-21.2-47.4-47.4c0-26.2,21.2-47.4,47.4-47.4
							c26.2,0,47.4,21.2,47.4,47.4C779.5-36,758.3-14.8,732.1-14.8z"/>
					</g>
					<path class="st2" d="M756.4-41.9c-7.4-25.5-0.5-41.4-0.5-41.4l-13.7,0.1c0,0-1.5,8.7-10,12.6c-8.5-3.9-10.5-12.6-10.5-12.6
						L708.1-83c0,0,7,15.8-0.1,41.4l15.5-0.1c0,0-2.8-10.2,0.9-16.4c0,0,3.9,1.4,6.3,10.5l1.6,0l1.4,0c2.3-9.1,6.2-10.6,6.2-10.6
						c3.7,6.2,1.1,16.4,1.1,16.4L756.4-41.9z"/>
					<g>
						<polygon class="st2" points="687.8,-73.1 688.3,-74.5 693.8,-75.1 689.7,-78.7 690.2,-80.2 699,-78.6 698.3,-76.5 
							693.5,-77.3 697.4,-73.9 697.1,-73 692.2,-72.4 696.2,-70.3 695.7,-68.8 						"/>
						<polygon class="st2" points="702,-82.7 694.4,-87.8 697,-91.7 697.5,-91.3 696.2,-89.4 699.2,-87.4 700.5,-89.3 701.1,-88.9 
							699.8,-87 702.2,-85.4 703.5,-87.3 704.6,-86.5 						"/>
						<polygon class="st2" points="702.7,-96.5 703.3,-95.7 704.9,-96.8 709.6,-90 711.2,-91.2 706.6,-97.9 708.2,-99.1 
							707.6,-99.9 						"/>
						<path class="st2" d="M718.8-100.5c1.6-0.9,1-2.7,1-2.7c-0.6-2.1-2.6-1.6-2.6-1.6l-3.4,1.1l2.9,8.8l1.9-0.6l-1-3.1l0.3-0.1
							l2.9,2.5l2.1-0.7L718.8-100.5z M716.9-100.5l-0.9-2.8c0,0,1.9-0.7,2.4,0.8C718.9-100.9,716.9-100.5,716.9-100.5z"/>
						<path class="st2" d="M732-107.4c-2.6,0-4.8,2.1-4.8,4.6c0,2.5,2.1,4.6,4.8,4.6c2.6,0,4.8-2.1,4.8-4.6
							C736.8-105.3,734.6-107.4,732-107.4z M732-99.1c-1.3,0-2.4-1.6-2.4-3.6c0-2,1.1-3.6,2.4-3.6c1.3,0,2.4,1.6,2.4,3.6
							C734.4-100.7,733.3-99.1,732-99.1z"/>
						<path class="st2" d="M748.4-97.1L748.4-97.1c-0.8,0.4-1.8,0.5-2.5,0c-1.2-0.8-1.4-2.7-0.4-4.4c1-1.6,2.9-2.3,4.1-1.5
							c0.7,0.5,1.1,1.3,1,2.2l0,0l0.3,0.2l0.7-1.1c-0.3-0.9-1-1.8-1.9-2.4c-2.2-1.4-5.1-0.8-6.4,1.4c-1.4,2.1-0.7,5,1.5,6.4
							c0.9,0.6,2.2,0.8,3.1,0.5l0.8-1.2L748.4-97.1z"/>
						<polygon class="st2" points="755.5,-90.1 761.2,-97.3 759.7,-98.5 754,-91.3 						"/>
						<polygon class="st2" points="767.3,-90.3 766.5,-89.7 767.6,-88.1 761,-83.3 762.2,-81.7 768.8,-86.5 770,-84.9 770.8,-85.5 
													"/>
						<polygon class="st2" points="774.3,-78.1 770.8,-74.1 766.2,-72.9 766.7,-71 771.6,-72.3 776.2,-71.1 775.9,-72.4 
							772.2,-73.3 774.8,-76.4 						"/>
						<polygon class="st2" points="775.9,-51.6 775.4,-50.1 770,-49.6 774,-45.9 773.5,-44.5 764.8,-46 765.5,-48.1 770.3,-47.3 
							766.4,-50.8 766.7,-51.7 771.5,-52.2 767.6,-54.3 768.1,-55.8 						"/>
						<polygon class="st2" points="761.7,-41.9 769.4,-36.8 766.8,-33 766.3,-33.3 767.6,-35.2 764.5,-37.3 763.2,-35.3 
							762.7,-35.7 763.9,-37.6 761.5,-39.3 760.2,-37.4 759.1,-38.1 						"/>
						<polygon class="st2" points="761,-28.1 760.5,-28.9 758.8,-27.8 754.2,-34.6 752.5,-33.4 757.2,-26.7 755.6,-25.6 
							756.1,-24.7 						"/>
						<path class="st2" d="M744.9-24.1c-1.6,0.9-1,2.7-1,2.7c0.6,2,2.6,1.6,2.6,1.6l3.4-1.1l-2.9-8.8l-1.9,0.6l1,3.1l-0.3,0.1
							l-2.9-2.5l-2.1,0.7L744.9-24.1z M746.9-24.1l0.9,2.8c0,0-1.9,0.7-2.4-0.8C744.9-23.8,746.9-24.1,746.9-24.1z"/>
						<path class="st2" d="M731.7-17.3c2.6,0,4.8-2.1,4.8-4.6c0-2.5-2.1-4.6-4.8-4.6c-2.6,0-4.8,2.1-4.8,4.6
							C727-19.3,729.1-17.3,731.7-17.3z M731.7-25.5c1.3,0,2.4,1.6,2.4,3.6c0,2-1.1,3.6-2.4,3.6c-1.3,0-2.4-1.6-2.4-3.6
							C729.3-23.9,730.4-25.5,731.7-25.5z"/>
						<path class="st2" d="M715.4-27.5L715.4-27.5c0.8-0.4,1.8-0.5,2.5,0c1.2,0.8,1.4,2.7,0.4,4.3c-1,1.6-2.9,2.3-4.1,1.5
							c-0.7-0.5-1.1-1.3-1-2.2l0,0l-0.3-0.2L712-23c0.3,0.9,1,1.8,1.9,2.4c2.2,1.4,5.1,0.8,6.4-1.4c1.4-2.1,0.7-5-1.5-6.4
							c-0.9-0.6-2.2-0.8-3.1-0.5l-0.8,1.2L715.4-27.5z"/>
						<polygon class="st2" points="708.3,-34.5 702.5,-27.3 704.1,-26.1 709.8,-33.3 						"/>
						<polygon class="st2" points="696.5,-34.3 697.3,-34.9 696.1,-36.5 702.8,-41.3 701.6,-42.9 695,-38.1 693.8,-39.7 693,-39.1 
													"/>
						<polygon class="st2" points="689.4,-46.5 693,-50.5 697.6,-51.7 697.1,-53.6 692.1,-52.3 687.6,-53.5 687.9,-52.2 
							691.5,-51.3 688.9,-48.3 						"/>
						<ellipse class="st2" cx="690.9" cy="-62.2" rx="3" ry="3.1"/>
						<ellipse class="st2" cx="773.2" cy="-62.2" rx="3" ry="3.1"/>
					</g>
				</g>
			</g>
		</g>
		
			<text transform="matrix(1 0 0 1 648.0342 123.2504)" style="fill:#6D6E71; font-family:'YDIYGO130-KSCPC-EUC-H'; font-size:20px;">C:0/M:0/Y:0/K:0</text>
	</g>
</g>
</svg>
