<?xml version="1.0" encoding="utf-8"?>
<!-- Generator: Adobe Illustrator 23.0.2, SVG Export Plug-In . SVG Version: 6.00 Build 0)  -->
<svg version="1.1" id="레이어_1" xmlns="http://www.w3.org/2000/svg" xmlns:xlink="http://www.w3.org/1999/xlink" x="0px"
	 y="0px" viewBox="0 0 72 48" style="enable-background:new 0 0 72 48;" xml:space="preserve">
<style type="text/css">
	.st0{fill:#FFFFFF;stroke:#C6C6C6;stroke-miterlimit:10;}
	.st1{stroke:#000000;stroke-width:2;}
	.st2{stroke:#FFFFFF;}
	.st3{fill:#C60C30;}
	.st4{fill:#003478;}
</style>
<title>Flag of South Korea</title>
<rect class="st0" width="72" height="48"/>
<g transform="rotate(-56.3099325)">
	<g id="b2">
		<path id="b" class="st1" d="M-6,18.3H6 M-6,21.3H6 M-6,24.3l12,0"/>
		<g>
			<path class="st1" d="M-6,62.3l12,0 M-6,65.3H6 M-6,68.3H6"/>
		</g>
	</g>
	<path class="st2" d="M0,60.3l0,10"/>
	<circle class="st3" cx="0" cy="43.3" r="12"/>
	<path class="st4" d="M0,31.3c-3.3,0-6,2.7-6,6s2.7,6,6,6s6,2.7,6,6s-2.7,6-6,6c-6.6,0-12-5.4-12-12S-6.6,31.3,0,31.3z"/>
</g>
<g transform="rotate(-123.6900675)">
	<g>
		<g>
			<path class="st1" d="M-45.9-8.4l12,0 M-45.9-5.4l12,0 M-45.9-2.4l12,0"/>
			<g>
				<path class="st1" d="M-45.9,35.6h12 M-45.9,38.6l12,0 M-45.9,41.6h12"/>
			</g>
		</g>
	</g>
	<path class="st2" d="M-39.9-6.9v3 M-39.9,33.6v3.5 M-39.9,40.1v3"/>
</g>
</svg>
